<?xml version="1.0" encoding="iso-8859-1"?>
<!-- Uploaded to: SVG Repo, www.svgrepo.com, Generator: SVG Repo Mixer Tools -->
<svg fill="#000000" version="1.1" id="Layer_1" xmlns="http://www.w3.org/2000/svg" xmlns:xlink="http://www.w3.org/1999/xlink" 
	 viewBox="0 0 496 496" xml:space="preserve">
<g>
	<g>
		<g>
			<path d="M248,0C111.256,0,0,111.256,0,248s111.256,248,248,248s248-111.256,248-248S384.744,0,248,0z M421.824,94.584
				l-8.104-0.064l-71.832-54.144l-1.752-5.248C371.592,48.8,399.416,69.232,421.824,94.584z M175.312,334.44l-38.008,52.312
				l-73.424-35.32l-24.656-80.688l37.664-69.928l68.744,22.336L175.312,334.44z M161.048,218.872L248,146.416l86.952,72.464
				L305.856,328H190.144L161.048,218.872z M188.144,344h119.72l37.896,52.16l-56.296,58.912l-84.352-1.488L150.24,396.16
				L188.144,344z M320.696,334.44l29.68-111.288l68.744-22.336l38.632,71.736l-27.48,79.768l-71.568,34.432L320.696,334.44z
				 M403.544,106.88l10.632,78.712l-67.744,22.016L256,132.256V70.68l80.176-14.576L403.544,106.88z M175.168,27.776
				C198.096,20.176,222.56,16,248,16s49.904,4.176,72.824,11.776l4.664,14L248,55.864l-77.496-14.088L175.168,27.776z M240,70.68
				v61.576l-90.424,75.352l-67.744-22.016l10.904-80.744l69.112-48.376L240,70.68z M155.856,35.136l-2.608,7.824L79.56,94.544
				l-5.384,0.04C96.584,69.232,124.408,48.8,155.856,35.136z M16,248c0-51.352,16.8-98.84,45.152-137.312l14.664-0.112
				l-10.544,78.056l-37.344,69.344l-11.896-8.784C16.032,248.792,16,248.4,16,248z M48.352,365.992
				c-17.008-28.672-28.024-61.296-31.296-96.144l6.656,4.904L50,360.784L48.352,365.992z M177.448,469
				c-47.88-15.328-89-45.8-117.776-85.76l4.424-13.952l70.976,34.152l54.416,56.952L177.448,469z M248,480
				c-17.376,0-34.288-1.984-50.584-5.624l6.72-4.808l89.944,1.584l4.504,3.224C282.288,478.016,265.376,480,248,480z
				 M318.56,468.992l-12.04-8.608l54.416-56.952l70.976-34.152l4.424,13.952C407.552,423.2,366.432,453.672,318.56,468.992z
				 M447.648,365.984l-2.472-7.8l29.296-85.04l4.472-3.304C475.672,304.688,464.656,337.304,447.648,365.984z M468.072,257.976
				l-37.344-69.344l-10.544-78.056l14.664,0.112C463.2,149.16,480,196.648,480,248c0,0.4-0.032,0.792-0.032,1.192L468.072,257.976z"
				/>
			<rect x="240" y="24" width="16" height="16"/>
			<rect x="34.582" y="173.262" transform="matrix(0.9511 0.3089 -0.3089 0.9511 58.0736 -4.2889)" width="16" height="16"/>
			<rect x="113.042" y="414.718" transform="matrix(-0.809 -0.5878 0.5878 -0.809 -29.5106 835.8469)" width="16" height="16"/>
			<rect x="366.944" y="414.765" transform="matrix(-0.5879 -0.8089 0.8089 -0.5879 253.3943 974.6154)" width="16" height="16"/>
			<rect x="445.431" y="173.241" transform="matrix(-0.3089 -0.9511 0.9511 -0.3089 421.1165 668.4822)" width="16" height="16"/>
			<rect x="240" y="208" width="16" height="16"/>
			<rect x="240" y="240" width="16" height="16"/>
			<rect x="240" y="272" width="16" height="16"/>
		</g>
	</g>
</g>
</svg>